<svg xmlns="http://www.w3.org/2000/svg" version="1.1" viewBox="-5.0 -10.0 110.0 135.0" style="color:#0abfb6;">
    <path
        d="m15.637 43.09c-0.625-0.16797-0.99609-0.80859-0.82812-1.4336 0.16797-0.625 0.80859-0.99609 1.4336-0.82812l5.6406 1.5117c0.625 0.16797 0.99609 0.80859 0.82813 1.4336l-1.5117 5.6406c-0.16797 0.625-0.80859 0.99609-1.4336 0.82813-0.625-0.16797-0.99609-0.80859-0.82812-1.4336l0.91016-3.3945c-9.4609 4.2383-15.547 13.625-15.547 24.004 0 14.52 11.77 26.285 26.285 26.285 14.52 0 26.285-11.77 26.285-26.285 0-7.0078-2.7422-13.633-7.6992-18.586-5.3789-5.3789-8.3867-12.641-8.3867-20.246 0-15.812 12.82-28.629 28.629-28.629 15.812 0 28.629 12.82 28.629 28.629 0 10.938-6.2188 20.887-16.02 25.703l2.3359 0.625c0.625 0.16797 0.99609 0.80859 0.82812 1.4336s-0.80859 0.99609-1.4336 0.82812l-5.6406-1.5117c-0.625-0.16797-0.99609-0.80859-0.82812-1.4336l1.5117-5.6406c0.16797-0.625 0.80859-0.99609 1.4336-0.82812s0.99609 0.80859 0.82812 1.4336l-0.91016 3.3945c9.4609-4.2383 15.547-13.625 15.547-24.004 0-14.52-11.77-26.285-26.285-26.285-14.52 0-26.285 11.77-26.285 26.285 0 7.0078 2.7422 13.633 7.6992 18.586 5.3789 5.3789 8.3867 12.641 8.3867 20.246 0 15.812-12.82 28.629-28.629 28.629-15.809 0-28.629-12.82-28.629-28.629 0-10.938 6.2188-20.887 16.02-25.703zm18.113 22.836-4.4961 4.4961-1.832-1.832c-0.45703-0.45703-1.1992-0.45703-1.6562 0-0.45703 0.45703-0.45703 1.1992 0 1.6562l2.6641 2.6641c0.45703 0.45703 1.1992 0.45703 1.6562 0l5.3242-5.3242c0.45703-0.45703 0.45703-1.1992 0-1.6562-0.45703-0.45703-1.1992-0.45703-1.6562 0zm-3.168-7.1406c-5.8711 0-10.629 4.7578-10.629 10.629 0 5.8711 4.7578 10.629 10.629 10.629 5.8711 0 10.629-4.7578 10.629-10.629 0-5.8711-4.7578-10.629-10.629-10.629zm0 2.3438c-4.5781 0-8.2852 3.7109-8.2852 8.2852 0 4.5781 3.7109 8.2852 8.2852 8.2852 4.5781 0 8.2852-3.7109 8.2852-8.2852 0-4.5781-3.7109-8.2852-8.2852-8.2852zm-2.9922-6.8477c-2.0352 0.39844-3.9492 1.1992-5.6484 2.3516-0.47266 0.32031-1.0938 0.24609-1.4805-0.14062l-0.003907 0.003906-2.5703-2.5703-2.793 2.793 2.5703 2.5703c0.42969 0.42969 0.45703 1.1094 0.078126 1.5703-0.55469 0.82812-1.0273 1.7148-1.4141 2.6484-0.39062 0.94531-0.69141 1.9414-0.89062 2.9805-0.10547 0.5625-0.59766 0.94922-1.1484 0.94922h-3.6367v3.9492h3.6367c0.59375 0 1.0859 0.44531 1.1602 1.0195 0.19922 1.0156 0.49609 1.9883 0.87891 2.9141 0.40234 0.96875 0.89453 1.8828 1.4727 2.7383 0.32031 0.47266 0.24609 1.0938-0.14062 1.4805l0.003906 0.003907-2.5703 2.5703 2.793 2.793 2.5703-2.5703c0.42969-0.42969 1.1094-0.45703 1.5703-0.078126 0.82812 0.55469 1.7148 1.0273 2.6523 1.4141 0.94531 0.39062 1.9414 0.69141 2.9805 0.89062 0.5625 0.10547 0.94922 0.59766 0.94922 1.1484v3.6367h3.9492v-3.6367c0-0.59375 0.44531-1.0859 1.0195-1.1602 1.0156-0.19922 1.9883-0.49609 2.9141-0.87891 0.96875-0.40234 1.8828-0.89453 2.7344-1.4727 0.47266-0.32031 1.0938-0.24609 1.4805 0.14062l0.003907-0.003906 2.5703 2.5703 2.793-2.793-2.5703-2.5703c-0.42969-0.42969-0.45703-1.1094-0.078125-1.5703 0.55469-0.82812 1.0273-1.7148 1.4141-2.6523 0.39062-0.94531 0.69141-1.9414 0.89062-2.9805 0.10547-0.5625 0.59766-0.94922 1.1484-0.94922h3.6367v-3.9492h-3.6367c-0.59375 0-1.0859-0.44531-1.1602-1.0195-0.19922-1.0156-0.49609-1.9883-0.87891-2.9141-0.40234-0.96875-0.89453-1.8828-1.4727-2.7383-0.32031-0.47266-0.24609-1.0938 0.14062-1.4805l-0.003906-0.003906 2.5703-2.5703-2.793-2.793-2.5703 2.5703c-0.42969 0.42969-1.1094 0.45703-1.5703 0.078124-0.82812-0.55469-1.7148-1.0273-2.6523-1.4141-0.94531-0.39062-1.9414-0.69141-2.9805-0.89062-0.5625-0.10547-0.94922-0.59766-0.94922-1.1484v-3.6367h-3.9492v3.6367c0 0.59375-0.44531 1.0859-1.0195 1.1602zm-3.8008-1.2812c-0.80859 0.33594-1.5898 0.73047-2.3359 1.1797l-1.9727-1.9727c-0.87109-0.87109-2.3164-0.87109-3.1914 0l-2.918 2.918c-0.88281 0.88281-0.875 2.332 0.003906 3.1875l-0.003906 0.003906 1.9727 1.9727c-0.89844 1.4922-1.5703 3.1172-1.9961 4.8125h-2.7852c-0.61719 0-1.1797 0.25391-1.5938 0.66406l-0.003906-0.003906c-0.40625 0.40625-0.66016 0.97266-0.66016 1.5938v4.125c0 1.2422 1.0156 2.2578 2.2539 2.2578h2.7852c0.42578 1.6992 1.0977 3.3164 1.9961 4.8125l-1.9727 1.9727c-0.875 0.875-0.875 2.3164 0 3.1914l2.918 2.918c0.87891 0.87891 2.3086 0.87891 3.1914 0l1.9727-1.9727c1.4961 0.89844 3.1172 1.5703 4.8125 1.9961v2.7852c0 0.61719 0.25391 1.1797 0.66406 1.5938l-0.003906 0.003906c0.40625 0.40625 0.97266 0.66016 1.5938 0.66016h4.125c1.2422 0 2.2578-1.0156 2.2578-2.2539v-2.7852c1.6953-0.42578 3.3203-1.0977 4.8125-1.9961l1.9727 1.9727c0.87109 0.87109 2.3164 0.87109 3.1914 0l2.918-2.918c0.88281-0.88281 0.875-2.332-0.003907-3.1875l0.003907-0.003906-1.9727-1.9727c0.89844-1.4961 1.5703-3.1172 1.9961-4.8125h2.7852c0.61719 0 1.1797-0.25391 1.5938-0.66406l0.003907 0.003906c0.40625-0.40625 0.66016-0.97266 0.66016-1.5938v-4.125c0-1.2422-1.0195-2.2578-2.2539-2.2578h-2.7852c-0.42578-1.6953-1.0977-3.3164-1.9961-4.8125l1.9727-1.9727c0.87109-0.87109 0.87109-2.3164 0-3.1914l-2.918-2.918c-0.4375-0.4375-1.0156-0.65625-1.5938-0.65625v-0.003907c-0.57812 0-1.1562 0.21875-1.5938 0.66016l-1.9727 1.9727c-1.4922-0.89844-3.1172-1.5703-4.8125-1.9961v-2.7852c0-0.61719-0.25391-1.1797-0.66406-1.5938l0.003906-0.003906c-0.40625-0.40625-0.97266-0.66016-1.5938-0.66016h-4.125c-1.2422 0-2.2578 1.0195-2.2578 2.2539v2.7852c-0.84766 0.21094-1.6758 0.48828-2.4766 0.82031zm48.793-25.906-4.4961 4.4961-1.832-1.832c-0.45703-0.45703-1.1992-0.45703-1.6562 0-0.45703 0.45703-0.45703 1.1992 0 1.6562l2.6641 2.6641c0.45703 0.45703 1.1992 0.45703 1.6562 0l5.3242-5.3242c0.45703-0.45703 0.45703-1.1992 0-1.6562-0.45703-0.45703-1.1992-0.45703-1.6562 0zm-3.1641-7.1406c-5.8711 0-10.629 4.7578-10.629 10.629 0 5.8711 4.7578 10.629 10.629 10.629 5.8711 0 10.629-4.7578 10.629-10.629 0-5.8711-4.7578-10.629-10.629-10.629zm0 2.3438c-4.5781 0-8.2852 3.7109-8.2852 8.2852 0 4.5781 3.7109 8.2852 8.2852 8.2852 4.5781 0 8.2852-3.7109 8.2852-8.2852 0-4.5781-3.7109-8.2852-8.2852-8.2852zm-2.9961-6.8477c-2.0352 0.39844-3.9492 1.1992-5.6484 2.3516-0.47266 0.32031-1.0938 0.24609-1.4805-0.14062l-0.003907 0.003906-2.5703-2.5703-2.793 2.793 2.5703 2.5703c0.42969 0.42969 0.45703 1.1094 0.078125 1.5703-0.55469 0.82812-1.0273 1.7148-1.4141 2.6484-0.39062 0.94531-0.69141 1.9414-0.89062 2.9805-0.10547 0.5625-0.59766 0.94922-1.1484 0.94922h-3.6367v3.9492h3.6367c0.59375 0 1.0859 0.44531 1.1602 1.0195 0.19922 1.0156 0.49609 1.9883 0.87891 2.9141 0.40234 0.96875 0.89453 1.8828 1.4727 2.7383 0.32031 0.47266 0.24609 1.0938-0.14062 1.4805l0.003906 0.003907-2.5703 2.5703 2.793 2.793 2.5703-2.5703c0.42969-0.42969 1.1094-0.45703 1.5703-0.078125 0.82812 0.55469 1.7148 1.0273 2.6523 1.4141 0.94531 0.39062 1.9414 0.69141 2.9805 0.89062 0.5625 0.10547 0.94922 0.59766 0.94922 1.1484v3.6367h3.9492v-3.6367c0-0.59375 0.44531-1.0859 1.0195-1.1602 1.0156-0.19922 1.9883-0.49609 2.9141-0.87891 0.96875-0.40234 1.8828-0.89453 2.7383-1.4727 0.47266-0.32031 1.0938-0.24609 1.4805 0.14062l0.003906-0.003906 2.5703 2.5703 2.793-2.793-2.5703-2.5703c-0.42969-0.42969-0.45703-1.1094-0.078125-1.5703 0.55469-0.82812 1.0273-1.7148 1.4141-2.6523 0.39062-0.94531 0.69141-1.9414 0.89062-2.9805 0.10547-0.5625 0.59766-0.94922 1.1484-0.94922h3.6367v-3.9492h-3.6367c-0.59375 0-1.0859-0.44531-1.1602-1.0195-0.19922-1.0156-0.49609-1.9883-0.87891-2.9141-0.40234-0.96875-0.89453-1.8828-1.4727-2.7383-0.32031-0.47266-0.24609-1.0938 0.14062-1.4805l-0.003906-0.003906 2.5703-2.5703-2.793-2.793-2.5703 2.5703c-0.42969 0.42969-1.1094 0.45703-1.5703 0.078125-0.82812-0.55469-1.7148-1.0273-2.6523-1.4141-0.94531-0.39062-1.9414-0.69141-2.9805-0.89062-0.5625-0.10547-0.94922-0.59766-0.94922-1.1484v-3.6367h-3.9492v3.6367c0 0.59375-0.44531 1.0859-1.0195 1.1602zm-3.8008-1.2812c-0.80859 0.33594-1.5898 0.73047-2.3359 1.1797l-1.9727-1.9727c-0.87109-0.87109-2.3164-0.87109-3.1914 0l-2.918 2.918c-0.88281 0.88281-0.875 2.332 0.003906 3.1875l-0.003906 0.003906 1.9727 1.9727c-0.89844 1.4922-1.5703 3.1172-1.9961 4.8125h-2.7852c-0.61719 0-1.1797 0.25391-1.5938 0.66406l-0.003906-0.003906c-0.40625 0.40625-0.66016 0.97266-0.66016 1.5938v4.125c0 1.2422 1.0156 2.2578 2.2539 2.2578h2.7852c0.42578 1.6992 1.0977 3.3164 1.9961 4.8125l-1.9727 1.9727c-0.875 0.875-0.875 2.3164 0 3.1914l2.918 2.918c0.87891 0.87891 2.3086 0.87891 3.1914 0l1.9727-1.9727c1.4961 0.89844 3.1172 1.5703 4.8125 1.9961v2.7852c0 0.61719 0.25391 1.1797 0.66406 1.5938l-0.003906 0.003906c0.40625 0.40625 0.97266 0.66016 1.5938 0.66016h4.125c1.2422 0 2.2578-1.0156 2.2578-2.2539v-2.7852c1.6953-0.42578 3.3203-1.0977 4.8125-1.9961l1.9727 1.9727c0.87109 0.87109 2.3164 0.87109 3.1914 0l2.918-2.918c0.88281-0.88281 0.875-2.332-0.003906-3.1875l0.003906-0.003907-1.9727-1.9727c0.89844-1.4961 1.5703-3.1172 1.9961-4.8125h2.7852c0.61719 0 1.1797-0.25391 1.5938-0.66406l0.003906 0.003906c0.40625-0.40625 0.66016-0.97266 0.66016-1.5938v-4.125c0-1.2422-1.0195-2.2578-2.2539-2.2578h-2.7852c-0.42578-1.6992-1.0977-3.3164-1.9961-4.8125l1.9727-1.9727c0.87109-0.87109 0.87109-2.3164 0-3.1914l-2.918-2.918c-0.4375-0.4375-1.0156-0.65625-1.5938-0.65625v-0.003906c-0.57813 0-1.1562 0.21875-1.5938 0.66016l-1.9727 1.9727c-1.4922-0.89844-3.1172-1.5703-4.8125-1.9961v-2.7852c0-0.61719-0.25391-1.1797-0.66406-1.5938l0.003906-0.003906c-0.40625-0.40625-0.97266-0.66016-1.5938-0.66016h-4.125c-1.2422 0-2.2578 1.0195-2.2578 2.2539v2.7852c-0.84766 0.21094-1.6758 0.48828-2.4766 0.82031z"
        fill-rule="evenodd"
        fill="currentColor"/>
</svg>
